<svg width="88" height="20" viewBox="0 0 88 20" fill="none" xmlns="http://www.w3.org/2000/svg">
<path d="M11.0581 15H18.8131V13.755H12.4081V9.99H18.0631V8.85H12.4081V5.46H18.6331V4.275H11.0581V15ZM19.8942 15H21.4242L24.3042 10.485H24.3342L27.0942 15H28.7142L25.0992 9.525L28.6092 4.275H27.1242L24.4092 8.565H24.3792L21.7242 4.275H20.1642L23.6142 9.51L19.8942 15ZM30.2323 15H31.5823V10.5H34.5073C36.8473 10.5 37.9723 9.315 37.9723 7.35C37.9723 6.54 37.7023 5.835 37.2523 5.31C36.6973 4.65 35.8273 4.275 34.7023 4.275H30.2323V15ZM31.5823 5.445H34.4773C35.8423 5.445 36.6373 6.12 36.6373 7.41C36.6373 8.64 35.9173 9.405 34.4023 9.405H31.5823V5.445ZM39.5704 15H46.5454V13.755H40.9204V4.275H39.5704V15ZM52.3473 15.225C55.5873 15.225 57.5973 12.84 57.5973 9.63C57.5973 6.42 55.5873 4.035 52.3473 4.035C49.1073 4.035 47.0973 6.42 47.0973 9.63C47.0973 12.84 49.1073 15.225 52.3473 15.225ZM52.3473 14.04C49.8273 14.04 48.4773 12.15 48.4773 9.63C48.4773 7.11 49.8273 5.205 52.3473 5.205C54.8673 5.205 56.2173 7.11 56.2173 9.63C56.2173 12.15 54.8673 14.04 52.3473 14.04ZM59.5064 15H60.8564V10.47H63.8414C65.2814 10.47 65.9114 11.025 66.0164 12.6C66.1364 14.4 66.1814 14.805 66.4064 15H67.8614V14.94C67.6664 14.805 67.4864 14.37 67.3664 12.645C67.2614 11.055 66.9164 10.305 65.8214 9.915V9.87C67.1114 9.45 67.6814 8.52 67.6814 7.215C67.6814 5.46 66.4064 4.275 64.5164 4.275H59.5064V15ZM60.8564 5.445H64.1114C65.6864 5.445 66.2864 6.105 66.2864 7.41C66.2864 8.625 65.5364 9.375 64.0364 9.375H60.8564V5.445ZM69.6208 15H77.3758V13.755H70.9708V9.99H76.6258V8.85H70.9708V5.46H77.1958V4.275H69.6208V15Z" fill="#222736"/>
<path d="M11.0581 15H11.0081V15.05H11.0581V15ZM18.8131 15V15.05H18.8631V15H18.8131ZM18.8131 13.755H18.8631V13.705H18.8131V13.755ZM12.4081 13.755H12.3581V13.805H12.4081V13.755ZM12.4081 9.99V9.94H12.3581V9.99H12.4081ZM18.0631 9.99V10.04H18.1131V9.99H18.0631ZM18.0631 8.85H18.1131V8.8H18.0631V8.85ZM12.4081 8.85H12.3581V8.9H12.4081V8.85ZM12.4081 5.46V5.41H12.3581V5.46H12.4081ZM18.6331 5.46V5.51H18.6831V5.46H18.6331ZM18.6331 4.275H18.6831V4.225H18.6331V4.275ZM11.0581 4.275V4.225H11.0081V4.275H11.0581ZM11.0581 15.05H18.8131V14.95H11.0581V15.05ZM18.8631 15V13.755H18.7631V15H18.8631ZM18.8131 13.705H12.4081V13.805H18.8131V13.705ZM12.4581 13.755V9.99H12.3581V13.755H12.4581ZM12.4081 10.04H18.0631V9.94H12.4081V10.04ZM18.1131 9.99V8.85H18.0131V9.99H18.1131ZM18.0631 8.8H12.4081V8.9H18.0631V8.8ZM12.4581 8.85V5.46H12.3581V8.85H12.4581ZM12.4081 5.51H18.6331V5.41H12.4081V5.51ZM18.6831 5.46V4.275H18.5831V5.46H18.6831ZM18.6331 4.225H11.0581V4.325H18.6331V4.225ZM11.0081 4.275V15H11.1081V4.275H11.0081ZM19.8942 15L19.8528 14.972L19.7999 15.05H19.8942V15ZM21.4242 15V15.05H21.4516L21.4663 15.0269L21.4242 15ZM24.3042 10.485V10.435H24.2768L24.262 10.4581L24.3042 10.485ZM24.3342 10.485L24.3768 10.4589L24.3622 10.435H24.3342V10.485ZM27.0942 15L27.0515 15.0261L27.0661 15.05H27.0942V15ZM28.7142 15V15.05H28.8071L28.7559 14.9725L28.7142 15ZM25.0992 9.525L25.0576 9.49721L25.0391 9.52483L25.0575 9.55255L25.0992 9.525ZM28.6092 4.275L28.6507 4.30279L28.7028 4.225H28.6092V4.275ZM27.1242 4.275V4.225H27.0967L27.0819 4.24826L27.1242 4.275ZM24.4092 8.565V8.615H24.4367L24.4514 8.59174L24.4092 8.565ZM24.3792 8.565L24.3367 8.59131L24.3513 8.615H24.3792V8.565ZM21.7242 4.275L21.7667 4.24869L21.752 4.225H21.7242V4.275ZM20.1642 4.275V4.225H20.0713L20.1224 4.30251L20.1642 4.275ZM23.6142 9.51L23.6556 9.53805L23.6743 9.51039L23.6559 9.48249L23.6142 9.51ZM19.8942 15.05H21.4242V14.95H19.8942V15.05ZM21.4663 15.0269L24.3463 10.5119L24.262 10.4581L21.382 14.9731L21.4663 15.0269ZM24.3042 10.535H24.3342V10.435H24.3042V10.535ZM24.2915 10.5111L27.0515 15.0261L27.1368 14.9739L24.3768 10.4589L24.2915 10.5111ZM27.0942 15.05H28.7142V14.95H27.0942V15.05ZM28.7559 14.9725L25.1409 9.49745L25.0575 9.55255L28.6725 15.0275L28.7559 14.9725ZM25.1407 9.55279L28.6507 4.30279L28.5676 4.24721L25.0576 9.49721L25.1407 9.55279ZM28.6092 4.225H27.1242V4.325H28.6092V4.225ZM27.0819 4.24826L24.3669 8.53826L24.4514 8.59174L27.1664 4.30174L27.0819 4.24826ZM24.4092 8.515H24.3792V8.615H24.4092V8.515ZM24.4217 8.53869L21.7667 4.24869L21.6817 4.30131L24.3367 8.59131L24.4217 8.53869ZM21.7242 4.225H20.1642V4.325H21.7242V4.225ZM20.1224 4.30251L23.5724 9.53751L23.6559 9.48249L20.2059 4.24749L20.1224 4.30251ZM23.5728 9.48195L19.8528 14.972L19.9356 15.028L23.6556 9.53805L23.5728 9.48195ZM30.2323 15H30.1823V15.05H30.2323V15ZM31.5823 15V15.05H31.6323V15H31.5823ZM31.5823 10.5V10.45H31.5323V10.5H31.5823ZM37.2523 5.31L37.2141 5.34218L37.2144 5.34254L37.2523 5.31ZM30.2323 4.275V4.225H30.1823V4.275H30.2323ZM31.5823 5.445V5.395H31.5323V5.445H31.5823ZM31.5823 9.405H31.5323V9.455H31.5823V9.405ZM30.2323 15.05H31.5823V14.95H30.2323V15.05ZM31.6323 15V10.5H31.5323V15H31.6323ZM31.5823 10.55H34.5073V10.45H31.5823V10.55ZM34.5073 10.55C35.6852 10.55 36.5656 10.2517 37.1517 9.69823C37.7382 9.14431 38.0223 8.34196 38.0223 7.35H37.9223C37.9223 8.32304 37.644 9.09569 37.083 9.62552C36.5216 10.1558 35.6695 10.45 34.5073 10.45V10.55ZM38.0223 7.35C38.0223 6.52865 37.7484 5.81196 37.2903 5.27746L37.2144 5.34254C37.6562 5.85804 37.9223 6.55135 37.9223 7.35H38.0223ZM37.2906 5.27782C36.7241 4.60412 35.8387 4.225 34.7023 4.225V4.325C35.816 4.325 36.6706 4.69587 37.2141 5.34218L37.2906 5.27782ZM34.7023 4.225H30.2323V4.325H34.7023V4.225ZM30.1823 4.275V15H30.2823V4.275H30.1823ZM31.5823 5.495H34.4773V5.395H31.5823V5.495ZM34.4773 5.495C35.1523 5.495 35.6787 5.6619 36.0359 5.98104C36.3922 6.29937 36.5873 6.77559 36.5873 7.41H36.6873C36.6873 6.75441 36.485 6.24813 36.1025 5.90646C35.721 5.5656 35.1674 5.395 34.4773 5.395V5.495ZM36.5873 7.41C36.5873 8.01524 36.4104 8.49914 36.0538 8.83221C35.6967 9.16576 35.152 9.355 34.4023 9.355V9.455C35.1677 9.455 35.7405 9.26174 36.1221 8.90529C36.5042 8.54836 36.6873 8.03476 36.6873 7.41H36.5873ZM34.4023 9.355H31.5823V9.455H34.4023V9.355ZM31.6323 9.405V5.445H31.5323V9.405H31.6323ZM39.5704 15H39.5204V15.05H39.5704V15ZM46.5454 15V15.05H46.5954V15H46.5454ZM46.5454 13.755H46.5954V13.705H46.5454V13.755ZM40.9204 13.755H40.8704V13.805H40.9204V13.755ZM40.9204 4.275H40.9704V4.225H40.9204V4.275ZM39.5704 4.275V4.225H39.5204V4.275H39.5704ZM39.5704 15.05H46.5454V14.95H39.5704V15.05ZM46.5954 15V13.755H46.4954V15H46.5954ZM46.5454 13.705H40.9204V13.805H46.5454V13.705ZM40.9704 13.755V4.275H40.8704V13.755H40.9704ZM40.9204 4.225H39.5704V4.325H40.9204V4.225ZM39.5204 4.275V15H39.6204V4.275H39.5204ZM52.3473 15.275C53.9803 15.275 55.3066 14.6736 56.2243 13.6649C57.1415 12.6567 57.6473 11.2453 57.6473 9.63H57.5473C57.5473 11.2247 57.0481 12.6108 56.1503 13.5976C55.253 14.5839 53.9543 15.175 52.3473 15.175V15.275ZM57.6473 9.63C57.6473 8.01468 57.1415 6.60327 56.2243 5.5951C55.3066 4.58642 53.9803 3.985 52.3473 3.985V4.085C53.9543 4.085 55.253 4.67608 56.1503 5.6624C57.0481 6.64923 57.5473 8.03532 57.5473 9.63H57.6473ZM52.3473 3.985C50.7143 3.985 49.388 4.58642 48.4703 5.5951C47.5531 6.60327 47.0473 8.01468 47.0473 9.63H47.1473C47.1473 8.03532 47.6465 6.64923 48.5443 5.6624C49.4416 4.67608 50.7403 4.085 52.3473 4.085V3.985ZM47.0473 9.63C47.0473 11.2453 47.5531 12.6567 48.4703 13.6649C49.388 14.6736 50.7143 15.275 52.3473 15.275V15.175C50.7403 15.175 49.4416 14.5839 48.5443 13.5976C47.6465 12.6108 47.1473 11.2247 47.1473 9.63H47.0473ZM52.3473 13.99C51.1009 13.99 50.148 13.5232 49.5058 12.7481C48.8625 11.9718 48.5273 10.8816 48.5273 9.63H48.4273C48.4273 10.8984 48.767 12.0132 49.4288 12.8119C50.0915 13.6118 51.0736 14.09 52.3473 14.09V13.99ZM48.5273 9.63C48.5273 8.37838 48.8625 7.2844 49.5058 6.50431C50.1481 5.72542 51.1011 5.255 52.3473 5.255V5.155C51.0735 5.155 50.0914 5.63708 49.4287 6.44069C48.767 7.2431 48.4273 8.36162 48.4273 9.63H48.5273ZM52.3473 5.255C53.5935 5.255 54.5464 5.72542 55.1887 6.50431C55.832 7.2844 56.1673 8.37838 56.1673 9.63H56.2673C56.2673 8.36162 55.9275 7.2431 55.2658 6.44069C54.6031 5.63708 53.6211 5.155 52.3473 5.155V5.255ZM56.1673 9.63C56.1673 10.8816 55.832 11.9718 55.1888 12.7481C54.5465 13.5232 53.5936 13.99 52.3473 13.99V14.09C53.6209 14.09 54.603 13.6118 55.2658 12.8119C55.9275 12.0132 56.2673 10.8984 56.2673 9.63H56.1673ZM59.5064 15H59.4564V15.05H59.5064V15ZM60.8564 15V15.05H60.9064V15H60.8564ZM60.8564 10.47V10.42H60.8064V10.47H60.8564ZM66.0164 12.6L66.0663 12.5967L66.0164 12.6ZM66.4064 15L66.3736 15.0378L66.3877 15.05H66.4064V15ZM67.8614 15V15.05H67.9114V15H67.8614ZM67.8614 14.94H67.9114V14.9138L67.8898 14.8989L67.8614 14.94ZM67.3664 12.645L67.3165 12.6483L67.3165 12.6485L67.3664 12.645ZM65.8214 9.915H65.7714V9.95027L65.8046 9.9621L65.8214 9.915ZM65.8214 9.87L65.8059 9.82246L65.7714 9.8337V9.87H65.8214ZM59.5064 4.275V4.225H59.4564V4.275H59.5064ZM60.8564 5.445V5.395H60.8064V5.445H60.8564ZM60.8564 9.375H60.8064V9.425H60.8564V9.375ZM59.5064 15.05H60.8564V14.95H59.5064V15.05ZM60.9064 15V10.47H60.8064V15H60.9064ZM60.8564 10.52H63.8414V10.42H60.8564V10.52ZM63.8414 10.52C64.5564 10.52 65.0581 10.6581 65.3949 10.9805C65.7321 11.3032 65.9143 11.8204 65.9665 12.6033L66.0663 12.5967C66.0135 11.8046 65.8281 11.2568 65.4641 10.9083C65.0997 10.5594 64.5663 10.42 63.8414 10.42V10.52ZM65.9665 12.6033C66.0264 13.5025 66.0678 14.0563 66.1226 14.4095C66.1772 14.7619 66.2467 14.9278 66.3736 15.0378L66.4391 14.9622C66.341 14.8772 66.2755 14.7431 66.2214 14.3942C66.1674 14.0462 66.1263 13.4975 66.0663 12.5967L65.9665 12.6033ZM66.4064 15.05H67.8614V14.95H66.4064V15.05ZM67.9114 15V14.94H67.8114V15H67.9114ZM67.8898 14.8989C67.808 14.8423 67.718 14.7153 67.6343 14.3767C67.551 14.0398 67.4762 13.5033 67.4162 12.6415L67.3165 12.6485C67.3765 13.5117 67.4518 14.0552 67.5372 14.4008C67.6222 14.7447 67.7197 14.9027 67.8329 14.9811L67.8898 14.8989ZM67.4163 12.6417C67.3637 11.8451 67.2507 11.251 67.0091 10.8061C66.7658 10.3583 66.3948 10.0662 65.8381 9.8679L65.8046 9.9621C66.3429 10.1538 66.6919 10.4317 66.9212 10.8539C67.1521 11.279 67.2641 11.8549 67.3165 12.6483L67.4163 12.6417ZM65.8714 9.915V9.87H65.7714V9.915H65.8714ZM65.8368 9.91754C66.4905 9.70474 66.9655 9.3613 67.2765 8.90243C67.5873 8.44395 67.7314 7.87466 67.7314 7.215H67.6314C67.6314 7.86034 67.4905 8.40855 67.1937 8.84632C66.8973 9.2837 66.4423 9.61526 65.8059 9.82246L65.8368 9.91754ZM67.7314 7.215C67.7314 6.32482 67.4077 5.57613 66.8416 5.05024C66.2759 4.52465 65.4718 4.225 64.5164 4.225V4.325C65.4509 4.325 66.2293 4.61784 66.7736 5.12351C67.3175 5.62887 67.6314 6.35018 67.6314 7.215H67.7314ZM64.5164 4.225H59.5064V4.325H64.5164V4.225ZM59.4564 4.275V15H59.5564V4.275H59.4564ZM60.8564 5.495H64.1114V5.395H60.8564V5.495ZM64.1114 5.495C64.8933 5.495 65.4217 5.65907 65.7551 5.97445C66.0879 6.28918 66.2364 6.76419 66.2364 7.41H66.3364C66.3364 6.75081 66.1849 6.24332 65.8239 5.9018C65.4635 5.56093 64.9044 5.395 64.1114 5.395V5.495ZM66.2364 7.41C66.2364 8.00697 66.0524 8.48333 65.6903 8.81105C65.3275 9.13944 64.7786 9.325 64.0364 9.325V9.425C64.7941 9.425 65.3703 9.23556 65.7574 8.8852C66.1453 8.53417 66.3364 8.02803 66.3364 7.41H66.2364ZM64.0364 9.325H60.8564V9.425H64.0364V9.325ZM60.9064 9.375V5.445H60.8064V9.375H60.9064ZM69.6208 15H69.5708V15.05H69.6208V15ZM77.3758 15V15.05H77.4258V15H77.3758ZM77.3758 13.755H77.4258V13.705H77.3758V13.755ZM70.9708 13.755H70.9208V13.805H70.9708V13.755ZM70.9708 9.99V9.94H70.9208V9.99H70.9708ZM76.6258 9.99V10.04H76.6758V9.99H76.6258ZM76.6258 8.85H76.6758V8.8H76.6258V8.85ZM70.9708 8.85H70.9208V8.9H70.9708V8.85ZM70.9708 5.46V5.41H70.9208V5.46H70.9708ZM77.1958 5.46V5.51H77.2458V5.46H77.1958ZM77.1958 4.275H77.2458V4.225H77.1958V4.275ZM69.6208 4.275V4.225H69.5708V4.275H69.6208ZM69.6208 15.05H77.3758V14.95H69.6208V15.05ZM77.4258 15V13.755H77.3258V15H77.4258ZM77.3758 13.705H70.9708V13.805H77.3758V13.705ZM71.0208 13.755V9.99H70.9208V13.755H71.0208ZM70.9708 10.04H76.6258V9.94H70.9708V10.04ZM76.6758 9.99V8.85H76.5758V9.99H76.6758ZM76.6258 8.8H70.9708V8.9H76.6258V8.8ZM71.0208 8.85V5.46H70.9208V8.85H71.0208ZM70.9708 5.51H77.1958V5.41H70.9708V5.51ZM77.2458 5.46V4.275H77.1458V5.46H77.2458ZM77.1958 4.225H69.6208V4.325H77.1958V4.225ZM69.5708 4.275V15H69.6708V4.275H69.5708Z" fill="#222736"/>
</svg>
