<?xml version="1.0" encoding="UTF-8"?>
<svg id="Layer_2" data-name="Layer 2" xmlns="http://www.w3.org/2000/svg" viewBox="0 0 2000 1153.94">
  <defs>
    <style>
      .cls-1 {
        fill: #f4f5ef;
      }
    </style>
  </defs>
  <g id="Layer_2-2" data-name="Layer 2">
    <g id="Layer_1-2" data-name="Layer 1-2">
      <g>
        <g>
          <path class="cls-1" d="m1288.77,320.83c-32.47-35.27-74.98-55.66-127.51-61.21,23.47-12.97,44.18-28.42,62.14-46.38,17.91-17.91,31.82-36.48,41.7-55.61,9.89-19.18,14.98-38.16,15.31-57.05.27-18.85-4.2-35.69-13.45-50.52-9.28-14.84-25.37-26.87-48.23-36.16-22.86-9.28-51.6-13.9-86.22-13.9h-269.72c-2.94,2.94-4.59,4.59-7.54,7.54v334.53c0,1.39-.61,2.7-1.68,3.59-103.9,86.08-110.1,167.25-182.04,221.23-2.8,2.09-6.86.6-7.7-2.8-.38-1.55.05-3.18,1.07-4.39,30.18-34.57,47.3-70.96,52.53-83.14-.93-2.38-1.45-3.73-2.38-6.12-59.71-25.28-109.25,4.2-122.69,13.48-.52,2.48-.8,3.87-1.31,6.3l30.51,48.75c-52.44,32.75-35.17,112.57-35.17,112.57,78.05,22.02,123.3-32.14,123.3-32.14l48.52,27.43c2.43-.62,3.89-.99,6.32-1.61,56.46-91.89-9.31-145.53-9.31-145.53,55.1-82.82,100.03-120.32,100.03-120.32v264.99l4.66,4.66h274.41c56.26,0,104.18-18.67,143.74-56.08,39.57-37.42,59.34-84.21,59.34-140.47,0-52.53-16.24-96.43-48.66-131.65h.03Zm-318.5-229.95c1.21-18.57,7.88-30.93,19.92-37.09,12.03-6.21,27.66-9.29,46.79-9.29,63.07,0,103.1,14.37,120.13,43.11,16.94,28.74,12.65,62.01-13.01,99.7-25.66,37.7-63.82,69.24-114.48,94.57-26.18,13.48-43.72,22.54-52.58,27.11-2.99-1.82-3.83-2.33-6.77-4.16V90.87h0Zm205.37,463.6c-32.47,30.93-77.73,46.37-135.86,46.37-12.97,0-23.79-.93-32.42-2.8-8.68-1.87-16.89-6.34-24.58-13.44-7.75-7.09-11.9-17.17-12.5-30.13v-49.13c0-38.35-3.87-65.68-11.62-82.06-6.16-13.07-17.69-20.11-34.62-21.23-1.17-4.16-1.17-4.2-2.37-8.4,28.97-20.81,70.54-44.51,124.6-71.01,35.88-16.05,67.09-19.32,93.68-9.71,26.54,9.56,47.26,26.27,62.09,50.06,14.84,23.79,22.3,49.92,22.3,78.33,0,44.5-16.28,82.25-48.71,113.14h0Z"/>
          <g>
            <circle class="cls-1" cx="613.89" cy="32.73" r="30.22"/>
            <g>
              <circle class="cls-1" cx="699.9" cy="32.73" r="30.22"/>
              <circle class="cls-1" cx="786.7" cy="32.73" r="30.22"/>
            </g>
            <g>
              <circle class="cls-1" cx="700.39" cy="173.21" r="30.22"/>
              <g>
                <circle class="cls-1" cx="655.34" cy="107.28" r="30.22"/>
                <circle class="cls-1" cx="742.14" cy="107.28" r="30.22"/>
              </g>
            </g>
          </g>
        </g>
        <g>
          <path class="cls-1" d="m785.19,990.69l-23.28,30.63v.49l37-4.9v16.66l-37-4.41v.49l23.52,29.4-15.44,8.82-14.7-34.3h-.49l-15.93,34.55-13.97-8.82,23.28-29.89v-.49l-36.26,4.66v-16.66l36.02,4.66v-.49l-23.03-29.89,14.95-8.58,15.19,34.06h.49l14.95-34.3,14.7,8.33v-.02Z"/>
          <g>
            <path class="cls-1" d="m12.36,919.95c0-7.73-4.64-16.38-12.36-16.38v-3.09h50.39c30.91,0,63.37,23.18,63.37,61.51,0,24.11-13.29,43.28-31.84,53.79,25.35,8.96,45.44,32.15,45.44,65.84,0,41.42-32.15,66.15-68.62,66.15H0v-3.09c7.73,0,12.36-8.65,12.36-16.38v-208.34h0Zm38.02,91.8c25.35,0,41.73-16.08,41.73-49.77s-16.07-49.15-42.35-49.15h-14.53c-.93,2.16-1.24,4.64-1.24,7.11v91.81h16.39Zm-16.38,116.53c0,3.4.93,6.8,2.47,9.58h22.26c28.44,0,46.99-18.24,46.99-56.26s-18.24-57.49-47.91-57.49h-23.8v104.17h-.01Z"/>
            <path class="cls-1" d="m204.02,1022.57c0-74.19,43.58-125.19,107.57-125.19s107.88,50.69,107.88,125.19-44.51,128.28-107.88,128.28-107.57-53.17-107.57-128.28h0Zm21.64,0c0,63.06,33.07,115.92,85.93,115.92s86.24-52.55,86.24-115.92-32.15-112.83-86.24-112.83-85.93,50.38-85.93,112.83Z"/>
            <path class="cls-1" d="m498.61,1144.67c7.73,0,12.36-8.65,12.36-16.38v-208.34c0-7.73-4.64-16.38-12.36-16.38v-3.09h26.89c42.66,0,77.59,44.82,91.81,82.22v-62.75c0-7.73-4.64-16.38-12.36-16.38v-3.09h37.09v3.09c-7.73,0-12.36,8.65-12.36,16.38v208.34c0,7.73,4.64,16.38,12.36,16.38v3.09h-37.09v-3.09c7.73,0,12.36-8.65,12.36-16.38v-49.46c0-23.49-4.64-48.53-12.36-71.09-16.38-47.29-46.99-85.32-81.61-85.32v205.87c0,7.73,4.64,16.38,12.36,16.38v3.09h-37.09v-3.09h0Z"/>
            <path class="cls-1" d="m894.28,1117.78c0,13.91,4.64,22.87,14.53,22.87,38.95,0,55.95-141.88,63.68-202.78,3.71-29.06,11.13-40.49,26.27-40.49,10.82,0,22.87,5.87,22.87,26.59l-18.55,6.18c0-8.97-4.02-20.4-9.27-20.4-3.09,0-5.87,4.64-7.42,15.76-12.06,78.82-19.78,228.43-85.62,228.43-12.98,0-28.13-5.87-28.13-26.58v-207.41c0-7.73-4.64-16.38-12.36-16.38v-3.09h46.37v3.09c-7.73,0-12.36,8.65-12.36,16.38v197.83h-.01Z"/>
            <path class="cls-1" d="m1095.21,1144.67c7.73,0,12.36-8.65,12.36-16.38v-208.34c0-7.73-4.64-16.38-12.36-16.38v-3.09h46.37v3.09c-7.73,0-12.36,8.65-12.36,16.38v208.34c0,7.73,4.64,16.38,12.36,16.38v3.09h-46.37v-3.09Z"/>
            <path class="cls-1" d="m1254.71,1117.78c0,13.91,4.64,22.87,14.53,22.87,38.95,0,55.95-141.88,63.68-202.78,3.71-29.06,11.13-40.49,26.27-40.49,10.82,0,22.87,5.87,22.87,26.59l-18.55,6.18c0-8.97-4.02-20.4-9.27-20.4-3.09,0-5.87,4.64-7.42,15.76-12.06,78.82-19.78,228.43-85.62,228.43-12.98,0-28.13-5.87-28.13-26.58v-207.41c0-7.73-4.64-16.38-12.36-16.38v-3.09h46.37v3.09c-7.73,0-12.36,8.65-12.36,16.38v197.83h-.01Z"/>
            <path class="cls-1" d="m1536.02,900.47h33.38v3.09c-7.73,0-12.36,8.65-12.36,16.38v208.34c0,7.73,4.64,16.38,12.36,16.38v3.09h-39.57c-55.95,0-31.84-111.28-67.39-111.28-4.64,0-8.34,1.86-10.82,5.25,4.33,42.04,23.49,78.51,47.91,106.03h-28.13c-19.78-25.66-33.07-61.2-36.47-98.3h-.31v-2.16c-.31-5.25-.62-10.82-.62-16.08,0-72.64,39.88-130.75,102.01-130.75h0Zm-80.68,121.8c55.33,0,34.62,112.83,66.77,112.83,7.42,0,11.75-5.87,13.29-15.15v-207.11c-52.55,0-84.39,48.22-84.7,109.73,1.54-.31,3.09-.31,4.64-.31h0Z"/>
            <path class="cls-1" d="m1648.54,1144.67c7.73,0,12.36-8.65,12.36-16.38v-208.34c0-7.73-4.64-16.38-12.36-16.38v-3.09h26.89c42.66,0,77.59,44.82,91.81,82.22v-62.75c0-7.73-4.64-16.38-12.36-16.38v-3.09h37.09v3.09c-7.73,0-12.36,8.65-12.36,16.38v208.34c0,7.73,4.64,16.38,12.36,16.38v3.09h-37.09v-3.09c7.73,0,12.36-8.65,12.36-16.38v-49.46c0-23.49-4.64-48.53-12.36-71.09-16.38-47.29-46.98-85.32-81.6-85.32v205.87c0,7.73,4.64,16.38,12.36,16.38v3.09h-37.09v-3.09h-.01Z"/>
            <path class="cls-1" d="m2000,900.47v49.15h-3.09c0-21.33-15.46-36.78-35.24-36.78h-5.25c-8.04,0-11.13,3.09-11.13,12.05v203.39c0,7.73,4.64,16.38,12.36,16.38v3.09h-48.22v-3.09c7.73,0,12.36-8.65,12.36-16.38v-203.39c0-7.42-1.86-12.05-10.51-12.05h-5.87c-19.78,0-35.24,15.45-35.24,36.78h-3.09v-49.15h132.92,0Z"/>
          </g>
        </g>
      </g>
    </g>
  </g>
</svg>