<svg width="122" height="122" viewBox="0 0 122 122" fill="none" xmlns="http://www.w3.org/2000/svg">
<g clip-path="url(#clip0_202_1088)">
<path d="M60.7041 120.567C93.9978 120.567 120.988 93.5772 120.988 60.2835C120.988 26.9898 93.9978 0 60.7041 0C27.4104 0 0.420593 26.9898 0.420593 60.2835C0.420593 93.5772 27.4104 120.567 60.7041 120.567Z" stroke="#AF4E2B" stroke-width="0.841267" stroke-miterlimit="10"/>
<path d="M11.6414 69.0307L11.3722 69.0846C11.4059 69.1872 11.4361 69.3016 11.4647 69.4278L11.7659 70.789C11.6717 70.8092 11.5977 70.821 11.5472 70.821C11.3655 70.8277 11.2511 70.7284 11.2056 70.5215L10.859 68.9601C10.8372 68.8625 10.8506 68.7767 10.8994 68.706C10.9482 68.6354 11.0256 68.5866 11.135 68.563L14.352 67.8496L14.3924 67.8799L14.8618 69.9932C14.8079 70.0167 14.7339 70.0386 14.6414 70.0588C14.5488 70.079 14.463 70.084 14.3823 70.0722L14.0323 68.4957L13.6924 68.5765L12.9572 68.7397L13.0345 69.0644L13.2533 70.052C13.1944 70.084 13.1187 70.1093 13.0245 70.1294C12.9319 70.1496 12.8528 70.158 12.7906 70.1547L12.5719 69.167C12.5416 69.0307 12.5197 68.9214 12.5046 68.8406L11.6431 69.0324L11.6414 69.0307Z" fill="#AF4E2B"/>
<path d="M16.8051 76.0115C16.8438 76.062 16.8825 76.1394 16.9212 76.2404C16.9599 76.343 16.9767 76.4372 16.9717 76.523L16.9414 76.5516L15.0149 76.1764L13.684 77.9061C13.5628 77.8219 13.4787 77.7143 13.4299 77.5847C13.3811 77.4552 13.4114 77.3189 13.5208 77.1725L14.4226 75.9964L12.7519 75.6902C12.7132 75.6397 12.6745 75.5606 12.6341 75.4563C12.5937 75.3503 12.5769 75.2544 12.5819 75.1686L12.6122 75.14L14.7574 75.5606L15.9554 74.0127C16.0765 74.0968 16.1607 74.2045 16.2095 74.3341C16.2583 74.4636 16.2297 74.5982 16.1203 74.7395L15.348 75.7407L16.8034 76.0132L16.8051 76.0115Z" fill="#AF4E2B"/>
<path d="M18.8376 80.4181L19.3878 81.3805C19.4787 81.5437 19.5376 81.7052 19.5662 81.8634C19.5948 82.0215 19.5914 82.173 19.5544 82.316C19.5191 82.459 19.4501 82.5919 19.3474 82.7147C19.2448 82.8376 19.1085 82.9452 18.9386 83.0395C18.7686 83.1337 18.6038 83.1909 18.4439 83.2128C18.2841 83.2346 18.1327 83.2229 17.9913 83.1774C17.85 83.132 17.7187 83.0563 17.5993 82.9486C17.4798 82.8409 17.3755 82.7063 17.288 82.5465L17.0121 82.0468L15.8764 82.6744C15.8511 82.6424 15.8242 82.6071 15.7973 82.565C15.7704 82.5229 15.7435 82.4775 15.7165 82.4304C15.693 82.3866 15.6694 82.3412 15.6475 82.2958C15.6257 82.2504 15.6105 82.21 15.5988 82.1746L18.7888 80.4097L18.8376 80.4198V80.4181ZM17.4075 81.8247L17.6784 82.3025C17.7373 82.4085 17.8062 82.4893 17.882 82.5431C17.9594 82.597 18.0401 82.6289 18.1242 82.6407C18.2084 82.6525 18.2959 82.6458 18.385 82.6222C18.4742 82.5986 18.5617 82.565 18.6475 82.5179C18.735 82.4691 18.8124 82.4136 18.8797 82.3496C18.947 82.2857 18.9975 82.215 19.0328 82.1393C19.0681 82.0619 19.0833 81.9778 19.0766 81.8836C19.0698 81.791 19.0379 81.6918 18.9806 81.5891C18.9201 81.4798 18.8679 81.3839 18.8225 81.3048C18.7787 81.224 18.7434 81.1567 18.7165 81.1012L17.4075 81.8264V81.8247Z" fill="#AF4E2B"/>
<path d="M20.2997 88.2438L20.0776 88.4053C20.1517 88.4844 20.2274 88.5752 20.3048 88.6796L21.1443 89.7934C21.067 89.8523 21.0047 89.891 20.9593 89.9129C20.7961 89.9953 20.6514 89.9516 20.5235 89.7833L19.5594 88.5079C19.4988 88.4272 19.4753 88.3447 19.4904 88.2606C19.5056 88.1765 19.556 88.0991 19.6452 88.0318L22.275 86.0464L22.3238 86.0565L23.6278 87.7844C23.5891 87.8282 23.5302 87.8787 23.4545 87.9359C23.3788 87.9931 23.3014 88.0335 23.224 88.0553L22.2515 86.7665L21.9755 86.9819L21.3732 87.4362L21.5784 87.6986L22.1875 88.5063C22.1471 88.5601 22.0883 88.6156 22.0125 88.6728C21.9368 88.73 21.8695 88.7704 21.809 88.7923L21.1999 87.9847C21.1157 87.8736 21.0501 87.7828 21.003 87.7155L20.298 88.2471L20.2997 88.2438Z" fill="#AF4E2B"/>
<path d="M26.5672 91.1328L27.4 91.9371C27.6692 92.2046 27.8139 92.4839 27.8341 92.7733C27.8526 93.0627 27.7382 93.3319 27.4909 93.5809C27.3209 93.7508 27.1308 93.8535 26.9171 93.8871C26.7035 93.9208 26.5016 93.8871 26.3114 93.7912C26.3888 93.9527 26.3703 94.1513 26.261 94.3851L25.985 94.9993C25.9026 95.1793 25.8689 95.3291 25.8841 95.4451C25.7444 95.4738 25.6115 95.425 25.4836 95.2988C25.413 95.2281 25.3776 95.1557 25.3776 95.08C25.3776 95.0043 25.4062 94.9067 25.4617 94.7839L25.7831 94.0789C25.8454 93.9393 25.8773 93.8148 25.8756 93.7071C25.8756 93.5994 25.8184 93.49 25.7091 93.3824L25.3961 93.0711L24.353 94.1227C24.289 94.0806 24.2167 94.0184 24.1359 93.9376C24.0551 93.8568 23.9929 93.7862 23.9525 93.7256L26.5201 91.1379L26.5689 91.1345L26.5672 91.1328ZM26.6412 91.8142L25.7158 92.7464C25.9194 92.9382 26.0641 93.0761 26.1482 93.1603C26.3182 93.3302 26.483 93.4059 26.6378 93.3891C26.7943 93.3723 26.9373 93.2965 27.0686 93.1653C27.3748 92.8574 27.3714 92.5495 27.0618 92.2399C26.865 92.0447 26.7253 91.9034 26.6412 91.8159V91.8142Z" fill="#AF4E2B"/>
<path d="M29.3871 98.5933L31.6249 95.6758C31.6905 95.7077 31.7696 95.7599 31.8621 95.8306C31.9546 95.9012 32.027 95.9652 32.0775 96.0224L29.8397 98.9399C29.7707 98.9046 29.6899 98.8524 29.5974 98.7817C29.5049 98.7111 29.4342 98.6471 29.3871 98.5933Z" fill="#AF4E2B"/>
<path d="M34.8654 101.436L34.7224 101.67C34.82 101.715 34.926 101.769 35.0371 101.835L36.2417 102.538C36.193 102.622 36.1509 102.683 36.1172 102.72C35.9995 102.858 35.848 102.875 35.6646 102.767L34.2833 101.961C34.1958 101.911 34.1436 101.843 34.1234 101.759C34.1032 101.675 34.1234 101.584 34.179 101.488L35.8396 98.6432L35.8884 98.6348L37.7577 99.7267C37.7375 99.7823 37.7039 99.8496 37.6568 99.932C37.6096 100.014 37.5541 100.08 37.4902 100.131L36.0954 99.3162L35.9237 99.6207L35.5435 100.272L35.8346 100.435L36.7095 100.945C36.6927 101.011 36.6607 101.083 36.6119 101.165C36.5631 101.248 36.516 101.31 36.4706 101.354L35.5957 100.844C35.4745 100.773 35.3803 100.716 35.3096 100.671L34.8638 101.433L34.8654 101.436Z" fill="#AF4E2B"/>
<path d="M44.19 102.641L44.2102 102.678L42.8507 106.084C42.7515 106.064 42.6404 106.028 42.521 105.981C42.4015 105.932 42.2972 105.884 42.2097 105.833L41.9809 103.313C41.964 103.047 41.9506 102.773 41.9439 102.492L41.922 102.488C41.7453 103.017 41.5973 103.431 41.4778 103.732L40.8553 105.291C40.7695 105.273 40.6836 105.246 40.5978 105.212C40.5103 105.177 40.4329 105.138 40.3606 105.095L41.7234 101.684C41.8227 101.704 41.9321 101.738 42.0515 101.785C42.1693 101.832 42.2736 101.881 42.3611 101.931L42.5799 104.448C42.5866 104.568 42.5933 104.728 42.6017 104.93C42.6101 105.132 42.6152 105.258 42.6202 105.305L42.6421 105.308C42.7851 104.871 42.9399 104.445 43.1048 104.033L43.6028 102.788C43.6499 102.668 43.7055 102.591 43.7677 102.557C43.83 102.524 43.9141 102.529 44.0201 102.571L44.1951 102.641H44.19Z" fill="#AF4E2B"/>
<path d="M50.1917 105.707C50.2169 105.594 50.2304 105.485 50.227 105.375C50.2236 105.266 50.2034 105.165 50.1614 105.073C50.121 104.98 50.0587 104.899 49.9746 104.83C49.8905 104.761 49.7811 104.711 49.6448 104.679C49.3756 104.617 49.1434 104.689 48.9466 104.898C48.7497 105.106 48.6 105.434 48.4957 105.885C48.3913 106.331 48.388 106.691 48.4822 106.96C48.5781 107.231 48.7716 107.401 49.066 107.468C49.3605 107.537 49.6953 107.477 50.0756 107.288C50.1967 107.416 50.2606 107.558 50.2691 107.716C50.1748 107.775 50.0688 107.823 49.9561 107.864C49.8417 107.904 49.7239 107.935 49.6028 107.956C49.4816 107.978 49.3588 107.988 49.236 107.987C49.1132 107.987 48.9954 107.972 48.8826 107.946C48.6134 107.884 48.3998 107.78 48.2416 107.633C48.0834 107.487 47.9724 107.319 47.9101 107.125C47.8462 106.932 47.8159 106.718 47.8159 106.484C47.8159 106.25 47.8445 106.015 47.9 105.777C47.9741 105.463 48.0733 105.197 48.2012 104.98C48.3291 104.763 48.4755 104.591 48.6387 104.465C48.8019 104.339 48.9786 104.256 49.1687 104.218C49.3588 104.179 49.5489 104.182 49.7407 104.226C49.9393 104.273 50.1126 104.342 50.259 104.435C50.4053 104.527 50.5231 104.635 50.6157 104.756C50.7065 104.877 50.7688 105.005 50.7991 105.142C50.8293 105.278 50.8293 105.414 50.7991 105.55C50.7503 105.761 50.6207 105.84 50.4104 105.791C50.3431 105.776 50.2691 105.747 50.1866 105.705L50.1917 105.707Z" fill="#AF4E2B"/>
<path d="M54.9195 108.89L55.288 105.231C55.3604 105.224 55.4546 105.225 55.5707 105.237C55.6868 105.249 55.781 105.266 55.855 105.288L55.4865 108.947C55.4108 108.954 55.3132 108.952 55.1971 108.94C55.0811 108.929 54.9885 108.912 54.9178 108.89H54.9195Z" fill="#AF4E2B"/>
<path d="M62.3345 108.247L62.0114 108.261L61.2745 108.281L60.9615 108.284L60.7007 109.191C60.6401 109.206 60.5594 109.217 60.4584 109.22C60.3575 109.223 60.2633 109.213 60.1724 109.19L60.1556 109.163L61.2761 105.491C61.3519 105.475 61.4595 105.465 61.6042 105.461C61.7473 105.458 61.8549 105.461 61.9273 105.475L63.2296 109.08C63.1555 109.132 63.0596 109.161 62.9402 109.163C62.8224 109.166 62.7366 109.146 62.6861 109.106C62.634 109.063 62.5902 108.986 62.5498 108.872L62.3345 108.247ZM61.0944 107.817L61.3687 107.803L61.9071 107.79C62.0535 107.79 62.1443 107.79 62.1763 107.788L61.9088 107.014C61.7725 106.615 61.6682 106.294 61.5975 106.048H61.5706C61.5319 106.247 61.4696 106.509 61.3821 106.834L61.0961 107.817H61.0944Z" fill="#AF4E2B"/>
<path d="M74.6422 105.348L74.8912 106.206C74.8996 106.237 74.9249 106.317 74.9669 106.445C75.009 106.573 75.0696 106.752 75.1486 106.979C75.0847 107.019 75.0023 107.054 74.8979 107.083C74.8525 107.096 74.8088 107.107 74.7667 107.115C74.7246 107.123 74.6843 107.127 74.6472 107.127L74.5463 106.927C74.3427 107.182 74.0886 107.352 73.7858 107.44C73.6344 107.483 73.4897 107.497 73.3534 107.482C73.2171 107.467 73.0943 107.428 72.9849 107.366C72.8755 107.303 72.783 107.221 72.7039 107.118C72.6265 107.016 72.5693 106.898 72.5323 106.767C72.4953 106.635 72.4785 106.509 72.4835 106.388C72.4886 106.267 72.5104 106.154 72.5474 106.052C72.5845 105.947 72.6366 105.855 72.7039 105.772C72.7695 105.69 72.8453 105.621 72.9294 105.562C72.7561 105.555 72.5996 105.495 72.46 105.379C72.3203 105.262 72.2244 105.113 72.1722 104.926C72.1335 104.791 72.1251 104.66 72.1453 104.534C72.1655 104.408 72.2109 104.288 72.2833 104.179C72.354 104.07 72.4515 103.972 72.5727 103.89C72.6955 103.807 72.8385 103.741 73.0034 103.694C73.3416 103.598 73.6697 103.56 73.9894 103.577C74.0399 103.753 74.0314 103.908 73.9641 104.043C73.6478 104.036 73.3954 104.058 73.2053 104.112C73.0085 104.167 72.8722 104.256 72.7965 104.379C72.7207 104.502 72.7073 104.645 72.7544 104.812C72.8015 104.978 72.8907 105.093 73.0219 105.155C73.1532 105.219 73.3281 105.219 73.5452 105.156L74.4992 104.886C74.7061 104.827 74.8626 104.754 74.9686 104.669C75.0342 104.714 75.083 104.793 75.115 104.907C75.1688 105.098 75.0662 105.229 74.8071 105.303L74.6422 105.35V105.348ZM74.2115 105.823C74.1913 105.754 74.1745 105.692 74.1593 105.636C74.1442 105.58 74.1324 105.533 74.124 105.495L73.6259 105.636C73.5014 105.671 73.3988 105.72 73.318 105.782C73.2373 105.845 73.1733 105.915 73.1279 105.993C73.0825 106.07 73.0573 106.156 73.0488 106.247C73.0404 106.338 73.0505 106.43 73.0774 106.524C73.1296 106.711 73.2205 106.842 73.35 106.92C73.4779 106.997 73.6276 107.012 73.7959 106.964C74.0516 106.891 74.2569 106.745 74.41 106.526L74.2098 105.821L74.2115 105.823Z" fill="#AF4E2B"/>
<path d="M85.2237 99.8431C85.1665 99.7438 85.0992 99.6546 85.0218 99.5772C84.946 99.4998 84.8602 99.441 84.7677 99.4023C84.6735 99.3636 84.5742 99.3467 84.4648 99.3535C84.3555 99.3602 84.2427 99.3989 84.1216 99.4696C83.8827 99.6092 83.7632 99.8212 83.7632 100.107C83.7632 100.393 83.8793 100.737 84.1132 101.135C84.3437 101.532 84.586 101.795 84.8417 101.926C85.0975 102.057 85.3549 102.047 85.6157 101.896C85.8765 101.744 86.0801 101.47 86.2265 101.073C86.4031 101.083 86.5461 101.142 86.6605 101.25C86.6319 101.357 86.5899 101.465 86.5344 101.573C86.4788 101.68 86.4132 101.783 86.3409 101.882C86.2685 101.982 86.1861 102.072 86.0952 102.157C86.0044 102.241 85.9101 102.311 85.8109 102.369C85.572 102.508 85.3448 102.579 85.1311 102.581C84.9158 102.582 84.7189 102.535 84.5406 102.439C84.3622 102.343 84.1923 102.209 84.0324 102.037C83.8726 101.867 83.7313 101.675 83.6084 101.465C83.4452 101.186 83.3375 100.923 83.2803 100.678C83.2248 100.432 83.213 100.207 83.2467 100.003C83.2803 99.7993 83.351 99.6176 83.4637 99.4595C83.5748 99.3013 83.7161 99.1718 83.8861 99.0725C84.0627 98.9699 84.236 98.9025 84.406 98.8689C84.5759 98.8369 84.7357 98.8336 84.8855 98.8571C85.0352 98.8824 85.1681 98.9345 85.2842 99.0119C85.4003 99.0893 85.4929 99.1886 85.5635 99.3097C85.6712 99.4965 85.6325 99.6429 85.4474 99.7505C85.3886 99.7842 85.3145 99.8145 85.227 99.8414L85.2237 99.8431Z" fill="#AF4E2B"/>
<path d="M91.7451 97.0752L91.4961 97.2805L90.919 97.7398L90.6717 97.93L91.0082 98.8116C90.9695 98.8604 90.9106 98.9159 90.8315 98.9799C90.7524 99.0421 90.67 99.0926 90.5842 99.1279L90.5556 99.1161L89.2382 95.5122C89.2886 95.4533 89.3694 95.3792 89.4821 95.2901C89.5949 95.2009 89.6823 95.1386 89.748 95.105L92.9599 97.1997C92.933 97.2855 92.8724 97.3663 92.7799 97.4403C92.6874 97.5144 92.6083 97.5497 92.541 97.548C92.4754 97.5463 92.3912 97.511 92.292 97.4437L91.7435 97.0752H91.7451ZM90.4967 97.4773L90.7087 97.3024L91.1293 96.9675C91.2471 96.8784 91.3178 96.8245 91.343 96.8043L90.6633 96.3484C90.315 96.1128 90.0374 95.9176 89.8321 95.7645L89.8119 95.7814C89.9011 95.9631 90.0088 96.2104 90.135 96.5234L90.4984 97.4807L90.4967 97.4773Z" fill="#AF4E2B"/>
<path d="M96.7659 92.9182L97.4994 92.1425C97.5567 92.198 97.6088 92.2536 97.6542 92.3108C97.767 92.4622 97.7485 92.6153 97.6004 92.7718L96.6346 93.7931C96.5656 93.8654 96.4866 93.9024 96.3991 93.9041C96.3116 93.9058 96.2275 93.8671 96.1467 93.7914L93.7373 91.5116L93.7407 91.4611L93.8904 91.3029C93.9729 91.2154 94.0519 91.1751 94.126 91.1784C94.2017 91.1818 94.2858 91.2289 94.38 91.3181L96.4529 93.2799C96.5438 93.1638 96.6481 93.0427 96.7659 92.9182Z" fill="#AF4E2B"/>
<path d="M100.836 88.8442L97.8763 86.662C97.9066 86.5963 97.9571 86.5156 98.0261 86.4214C98.0951 86.3271 98.1573 86.2548 98.2145 86.2026L101.174 88.3849C101.14 88.4539 101.09 88.5363 101.021 88.6288C100.952 88.7231 100.89 88.7937 100.836 88.8442Z" fill="#AF4E2B"/>
<path d="M104.785 82.151C104.797 82.2183 104.8 82.294 104.793 82.3748C104.788 82.4555 104.775 82.5397 104.753 82.6255C104.731 82.713 104.706 82.7971 104.674 82.8795C104.642 82.962 104.608 83.0394 104.569 83.1084C104.529 83.1807 104.462 83.3002 104.364 83.4684C104.267 83.6367 104.139 83.8571 103.981 84.1297L103.932 84.1397L100.77 82.3933L100.753 82.3462C100.895 82.0669 101.082 81.7203 101.312 81.3013C101.453 81.0473 101.612 80.8588 101.792 80.736C101.97 80.6132 102.162 80.5408 102.365 80.5206C102.569 80.5004 102.783 80.524 103.005 80.5947C103.227 80.6636 103.451 80.7612 103.678 80.8857C103.992 81.059 104.243 81.2424 104.43 81.4342C104.617 81.626 104.736 81.865 104.786 82.151H104.785ZM101.716 81.5268L101.403 82.0921L103.854 83.4465L104.167 82.8812C104.462 82.3479 104.201 81.8549 103.385 81.404C102.958 81.1684 102.609 81.0624 102.342 81.0893C102.073 81.1146 101.866 81.2626 101.718 81.5285L101.716 81.5268Z" fill="#AF4E2B"/>
<path d="M107.061 75.3805L106.954 75.6851L106.696 76.3766L106.582 76.6677L107.324 77.2498C107.315 77.3121 107.295 77.3895 107.26 77.4837C107.224 77.5779 107.179 77.662 107.125 77.7378L107.095 77.7428L104.11 75.3317C104.124 75.256 104.154 75.1517 104.204 75.0171C104.255 74.8825 104.299 74.7849 104.337 74.7227L108.168 74.864C108.189 74.9515 108.178 75.0524 108.138 75.1635C108.096 75.2745 108.047 75.3452 107.988 75.3788C107.929 75.4125 107.842 75.4243 107.721 75.4175L107.061 75.3839V75.3805ZM106.198 76.3682L106.289 76.1091L106.477 75.6043C106.533 75.468 106.565 75.3839 106.577 75.3536L105.759 75.3132C105.338 75.2914 105 75.2661 104.746 75.2409L104.736 75.2661C104.906 75.3755 105.125 75.532 105.394 75.7355L106.198 76.3682Z" fill="#AF4E2B"/>
<path d="M109.696 68.1862C109.728 68.2485 109.752 68.3174 109.77 68.3965C109.789 68.4756 109.8 68.5597 109.806 68.6489C109.811 68.7381 109.811 68.8273 109.806 68.9147C109.8 69.0039 109.789 69.0864 109.772 69.1638C109.755 69.2445 109.725 69.3791 109.681 69.5676C109.637 69.756 109.58 70.005 109.508 70.3129L109.464 70.3365L105.929 69.5928L105.899 69.5541C105.953 69.2462 106.028 68.8592 106.126 68.3915C106.186 68.1071 106.282 67.88 106.417 67.71C106.551 67.5401 106.713 67.4156 106.903 67.3365C107.093 67.2574 107.304 67.2188 107.536 67.2188C107.768 67.2188 108.012 67.2474 108.264 67.3012C108.616 67.3752 108.909 67.4762 109.144 67.604C109.38 67.7319 109.563 67.9254 109.696 68.1845V68.1862ZM106.578 68.4874L106.446 69.12L109.185 69.6971L109.318 69.0645C109.444 68.4672 109.05 68.0735 108.136 67.88C107.659 67.779 107.295 67.7807 107.046 67.885C106.797 67.9893 106.641 68.1896 106.578 68.4874Z" fill="#AF4E2B"/>
<path d="M11.7407 59.5552C11.4042 59.5502 11.0222 59.747 11.0172 60.0835H10.8826L10.9145 57.8828C10.9347 56.5334 11.9661 55.1335 13.6386 55.1571C14.6901 55.1722 15.5179 55.7645 15.9655 56.5805C16.3727 55.4801 17.3973 54.6187 18.8679 54.6405C20.6749 54.6675 21.7332 56.0858 21.7097 57.6775L21.6727 60.24H21.5381C21.5431 59.9001 21.1679 59.6932 20.8314 59.6881L11.7407 59.5552ZM15.7703 57.9551C15.7872 56.8497 15.0956 56.1245 13.6251 56.1027C12.168 56.0808 11.4698 56.7723 11.4529 57.9198L11.4429 58.5541C11.5371 58.5962 11.6448 58.6113 11.7524 58.613L15.7586 58.6719L15.7686 57.9568L15.7703 57.9551ZM20.8449 58.7442C20.9929 58.7459 21.1427 58.7089 21.2638 58.6433L21.2773 57.6725C21.2958 56.4324 20.5117 55.6114 18.8527 55.5861C17.1938 55.5626 16.3323 56.3449 16.3138 57.6405L16.2986 58.6786L20.8432 58.7459L20.8449 58.7442Z" fill="#AF4E2B"/>
<path d="M18.7703 46.0021C15.8898 44.5232 14.7793 41.816 16.0547 39.3309C17.33 36.8474 20.1718 36.1525 23.0641 37.6382C25.9917 39.1407 27.156 41.922 25.8941 44.3818C24.6373 46.8299 21.6861 47.4979 18.7703 46.0021ZM19.201 45.1625C21.6491 46.4194 24.3597 46.1889 25.4129 44.1362C26.478 42.0599 25.0916 39.7414 22.6317 38.4778C20.2072 37.2327 17.611 37.4767 16.5342 39.5765C15.4624 41.6645 16.7782 43.9158 19.201 45.1608V45.1625Z" fill="#AF4E2B"/>
<path d="M32.3601 34.7256C32.6142 34.5035 32.5183 34.0863 32.2962 33.8322L26.3114 26.9877C26.0893 26.7336 25.6889 26.5822 25.4348 26.8043L25.3456 26.7033L26.229 25.931C27.6305 24.7061 30.0652 25.1756 31.6064 25.995L29.8044 23.9339C29.5823 23.6798 29.1818 23.5284 28.9278 23.7505L28.8386 23.6495L30.0567 22.5845L30.1459 22.6854C29.8918 22.9075 29.9878 23.3248 30.2098 23.5789L36.1946 30.4234C36.4167 30.6775 36.8172 30.8289 37.0712 30.6068L37.1604 30.7077L35.9422 31.7728L35.8531 31.6718C36.1071 31.4497 36.0112 31.0325 35.7891 30.7784L34.3691 29.1531C33.6944 28.3808 32.8228 27.6926 31.921 27.1727C30.0248 26.0892 27.9266 25.719 26.7893 26.7134L32.7034 33.4755C32.9255 33.7296 33.3259 33.881 33.58 33.6589L33.6691 33.7599L32.451 34.8249L32.3618 34.724L32.3601 34.7256Z" fill="#AF4E2B"/>
<path d="M53.772 22.3559C53.8427 22.9582 54.0883 23.3233 54.5174 23.2745C56.205 23.0777 56.2235 16.8422 56.2504 14.1636C56.2639 12.8849 56.528 12.3515 57.1842 12.2758C57.6536 12.2203 58.2055 12.4138 58.3098 13.3123L57.5375 13.674C57.4921 13.2853 57.2599 12.8109 57.0328 12.8361C56.8982 12.8513 56.8023 13.0666 56.7905 13.5562C56.6677 17.034 57.09 23.5572 54.2364 23.8904C53.6744 23.956 52.988 23.7776 52.882 22.8808L51.8321 13.8911C51.7934 13.5562 51.5477 13.2046 51.2129 13.2433L51.1978 13.1087L53.2067 12.8748L53.2218 13.0094C52.887 13.0481 52.7305 13.4469 52.7692 13.7817L53.7703 22.3559H53.772Z" fill="#AF4E2B"/>
<path d="M66.3389 23.4731C66.6703 23.532 66.9362 23.1971 66.9967 22.8657L68.6069 13.918C68.6658 13.5865 68.5346 13.1793 68.2031 13.1188L68.2267 12.9858L70.2188 13.3442L70.1952 13.4771C69.8638 13.4183 69.5979 13.7531 69.5374 14.0845L67.9272 23.0322C67.8666 23.3637 67.9995 23.7709 68.331 23.8315L68.3074 23.9644L66.3153 23.606L66.3389 23.4731Z" fill="#AF4E2B"/>
<path d="M77.0768 25.4332C76.7992 25.9733 76.7992 26.4125 77.1828 26.611C78.6937 27.39 82.1917 22.228 83.7094 20.0205C84.4345 18.9673 84.9511 18.6728 85.5383 18.9757C85.9572 19.1927 86.3072 19.6605 85.8933 20.4647L85.0503 20.3335C85.2304 19.9852 85.3027 19.4619 85.0991 19.3576C84.9797 19.2954 84.7778 19.4199 84.4968 19.8203C82.4525 22.6352 79.1598 28.2835 76.6057 26.966C76.1026 26.7069 75.6315 26.1752 76.0471 25.3727L80.1962 17.3285C80.351 17.029 80.3443 16.5999 80.0448 16.4451L80.1071 16.3257L81.9057 17.2528L81.8434 17.3722C81.5439 17.2174 81.1906 17.4597 81.0358 17.7609L77.0785 25.4332H77.0768Z" fill="#AF4E2B"/>
<path d="M96.9206 28.374L97.9402 29.4155L97.8443 29.5097C97.6088 29.2691 97.1966 29.3886 96.956 29.6242L90.4597 35.9825C90.2191 36.218 90.0895 36.6269 90.3268 36.8675L90.2309 36.9617L89.0228 35.7284C87.315 33.9836 91.5214 31.3387 90.4361 30.2299C90.2948 30.0852 90.1232 30.0263 89.9415 30.0532C88.762 31.4716 88.2101 33.1827 88.0974 34.7828L87.2393 33.9062C87.4362 32.5063 88.1378 31.0072 89.1911 29.7689L89.181 29.7588C89.1995 29.7403 89.2298 29.7117 89.2483 29.6931C89.4031 29.5232 89.5663 29.3432 89.7312 29.1833C91.9958 26.9658 95.0261 26.4358 96.9223 28.374H96.9206ZM90.6599 29.5754C92.3492 31.3016 88.1984 34.098 89.1793 35.1008C89.4064 35.333 89.7211 35.2876 90.0576 35.0537L96.5151 28.7324C94.9117 27.0936 92.435 27.5732 90.5085 29.4408C90.5657 29.4795 90.6128 29.5283 90.6599 29.5754Z" fill="#AF4E2B"/>
<path d="M94.3918 42.674C94.5348 42.9786 94.9622 43.0021 95.2684 42.8591L103.501 39.001C103.806 38.858 104.063 38.5148 103.92 38.2086L104.043 38.1514L104.541 39.2147C105.332 40.9006 104.206 43.1098 102.993 44.365L105.473 43.2023C105.777 43.0593 106.035 42.7161 105.892 42.4099L106.015 42.3527L106.701 43.8181L106.578 43.8753C106.435 43.5708 106.008 43.5473 105.702 43.6903L97.4691 47.5483C97.1646 47.6913 96.9072 48.0346 97.0502 48.3408L96.9274 48.398L96.2409 46.9325L96.3637 46.8753C96.5067 47.1798 96.9341 47.2034 97.2403 47.0604L99.1937 46.1451C100.122 45.7093 101.026 45.0632 101.773 44.3397C103.338 42.817 104.273 40.904 103.632 39.5361L95.4989 43.3487C95.1943 43.4917 94.9369 43.835 95.0799 44.1412L94.9571 44.1984L94.2706 42.7329L94.3935 42.6757L94.3918 42.674Z" fill="#AF4E2B"/>
<path d="M109.718 60.2838L107.573 60.2636V60.129C108.505 60.1374 109.185 59.4694 109.193 58.6063V58.3774C109.198 58.0275 109.065 57.8912 108.673 57.8861L99.7994 57.802C99.4629 57.7986 99.0827 57.9972 99.0793 58.3354H98.9447L98.9649 56.2305H99.0995C99.0961 56.5687 99.4713 56.774 99.8095 56.7774L108.683 56.8615C109.006 56.8648 109.21 56.7858 109.213 56.4072V56.1514C109.223 55.2883 108.555 54.6069 107.625 54.5985V54.4639L109.77 54.4841L109.715 60.2838H109.718Z" fill="#AF4E2B"/>
<path d="M79.1632 59.8495C77.3006 57.8254 74.8609 56.656 71.8458 56.3363C73.1936 55.591 74.3814 54.706 75.4111 53.6746C76.4392 52.6465 77.2367 51.5815 77.8037 50.4828C78.3707 49.3824 78.6635 48.2921 78.682 47.2086C78.6971 46.1267 78.4414 45.1609 77.9097 44.3096C77.3763 43.4582 76.4543 42.7667 75.1419 42.235C73.8296 41.7017 72.1807 41.4375 70.1936 41.4375H54.716L54.2836 41.8699V61.0676C54.2836 61.1484 54.2482 61.2224 54.1876 61.2729C48.2247 66.2128 47.8697 70.8701 43.7408 73.9676C43.581 74.0871 43.3471 74.0029 43.2983 73.8078C43.2764 73.7186 43.3017 73.6261 43.3605 73.5554C45.0919 71.5717 46.0745 69.4837 46.3756 68.7854C46.3218 68.6491 46.2932 68.5717 46.2394 68.4338C42.812 66.9834 39.9702 68.6744 39.198 69.2077C39.1677 69.3507 39.1525 69.4298 39.1222 69.5695L40.8738 72.3675C37.8654 74.2469 38.8547 78.8268 38.8547 78.8268C43.3336 80.0904 45.9298 76.9827 45.9298 76.9827L48.7144 78.5576C48.854 78.5222 48.9381 78.5004 49.0778 78.465C52.3184 73.192 48.5427 70.1129 48.5427 70.1129C51.7042 65.3598 54.2836 63.2078 54.2836 63.2078V78.4145C54.3879 78.5189 54.4468 78.5778 54.5511 78.6821H70.2979C73.5267 78.6821 76.276 77.6103 78.5457 75.4634C80.8154 73.3165 81.9511 70.6311 81.9511 67.4024C81.9511 64.3873 81.019 61.8685 79.1581 59.8478L79.1632 59.8495ZM60.8858 46.6534C60.9548 45.5883 61.3384 44.8783 62.0283 44.525C62.7181 44.1683 63.6166 43.9916 64.7136 43.9916C68.3327 43.9916 70.6294 44.816 71.6069 46.4649C72.5794 48.1138 72.3321 50.0235 70.8599 52.1855C69.3877 54.3493 67.197 56.158 64.2896 57.6117C62.7871 58.3857 61.7809 58.9056 61.2728 59.168C61.1012 59.0637 61.0541 59.0351 60.8841 58.9291V46.6517L60.8858 46.6534ZM72.6703 73.2576C70.8077 75.0327 68.2099 75.9177 64.8734 75.9177C64.1297 75.9177 63.5089 75.8638 63.0125 75.7578C62.5145 75.6501 62.0434 75.3944 61.6026 74.9872C61.1584 74.5801 60.9195 74.0013 60.8858 73.2576V70.4377C60.8858 68.2369 60.6637 66.6688 60.2195 65.7282C59.8662 64.9778 59.205 64.574 58.2325 64.5101C58.1652 64.2712 58.1652 64.2695 58.0962 64.0289C59.7585 62.8343 62.1444 61.4748 65.2469 59.9538C67.3064 59.0334 69.0966 58.845 70.6226 59.3969C72.1453 59.9454 73.3349 60.9044 74.1863 62.269C75.0376 63.6335 75.4667 65.1343 75.4667 66.7647C75.4667 69.3188 74.5329 71.4842 72.672 73.2576H72.6703Z" fill="#AF4E2B"/>
<path d="M40.4346 45.0514C41.3927 45.0514 42.1693 44.2748 42.1693 43.3167C42.1693 42.3587 41.3927 41.582 40.4346 41.582C39.4766 41.582 38.7 42.3587 38.7 43.3167C38.7 44.2748 39.4766 45.0514 40.4346 45.0514Z" fill="#AF4E2B"/>
<path d="M45.3712 45.0514C46.3293 45.0514 47.1059 44.2748 47.1059 43.3167C47.1059 42.3587 46.3293 41.582 45.3712 41.582C44.4132 41.582 43.6365 42.3587 43.6365 43.3167C43.6365 44.2748 44.4132 45.0514 45.3712 45.0514Z" fill="#AF4E2B"/>
<path d="M50.3516 45.0514C51.3096 45.0514 52.0863 44.2748 52.0863 43.3167C52.0863 42.3587 51.3096 41.582 50.3516 41.582C49.3935 41.582 48.6169 42.3587 48.6169 43.3167C48.6169 44.2748 49.3935 45.0514 50.3516 45.0514Z" fill="#AF4E2B"/>
<path d="M45.3981 53.1125C46.3562 53.1125 47.1328 52.3358 47.1328 51.3778C47.1328 50.4197 46.3562 49.6431 45.3981 49.6431C44.4401 49.6431 43.6635 50.4197 43.6635 51.3778C43.6635 52.3358 44.4401 53.1125 45.3981 53.1125Z" fill="#AF4E2B"/>
<path d="M42.8138 49.3302C43.7718 49.3302 44.5485 48.5536 44.5485 47.5955C44.5485 46.6375 43.7718 45.8608 42.8138 45.8608C41.8558 45.8608 41.0791 46.6375 41.0791 47.5955C41.0791 48.5536 41.8558 49.3302 42.8138 49.3302Z" fill="#AF4E2B"/>
<path d="M47.7941 49.3302C48.7521 49.3302 49.5288 48.5536 49.5288 47.5955C49.5288 46.6375 48.7521 45.8608 47.7941 45.8608C46.836 45.8608 46.0594 46.6375 46.0594 47.5955C46.0594 48.5536 46.836 49.3302 47.7941 49.3302Z" fill="#AF4E2B"/>
</g>
<defs>
<clipPath id="clip0_202_1088">
<rect width="121.41" height="121.41" fill="white"/>
</clipPath>
</defs>
</svg>
