<svg width="16" height="15" viewBox="0 0 16 15" fill="none" xmlns="http://www.w3.org/2000/svg">
<path d="M12.005 2.595C11.827 2.595 11.653 2.64778 11.505 2.74668C11.357 2.84557 11.2416 2.98613 11.1735 3.15058C11.1054 3.31504 11.0876 3.496 11.1223 3.67058C11.157 3.84516 11.2427 4.00553 11.3686 4.1314C11.4945 4.25726 11.6548 4.34298 11.8294 4.37771C12.004 4.41243 12.185 4.39461 12.3494 4.32649C12.5139 4.25837 12.6544 4.14302 12.7533 3.99501C12.8522 3.84701 12.905 3.673 12.905 3.495C12.905 3.25631 12.8102 3.02739 12.6414 2.8586C12.4726 2.68982 12.2437 2.595 12.005 2.595V2.595ZM15.455 4.41C15.4404 3.78772 15.3239 3.17205 15.11 2.5875C14.9193 2.08735 14.6225 1.63446 14.24 1.26C13.8686 0.875569 13.4147 0.580632 12.9125 0.3975C12.3295 0.177121 11.7131 0.0579075 11.09 0.045C10.295 -4.19095e-08 10.04 0 8 0C5.96 0 5.705 -4.19095e-08 4.91 0.045C4.28686 0.0579075 3.67051 0.177121 3.0875 0.3975C2.58626 0.582486 2.1327 0.87717 1.76 1.26C1.37557 1.63138 1.08063 2.08533 0.8975 2.5875C0.677121 3.17051 0.557907 3.78686 0.545 4.41C0.5 5.205 0.5 5.46 0.5 7.5C0.5 9.54 0.5 9.795 0.545 10.59C0.557907 11.2131 0.677121 11.8295 0.8975 12.4125C1.08063 12.9147 1.37557 13.3686 1.76 13.74C2.1327 14.1228 2.58626 14.4175 3.0875 14.6025C3.67051 14.8229 4.28686 14.9421 4.91 14.955C5.705 15 5.96 15 8 15C10.04 15 10.295 15 11.09 14.955C11.7131 14.9421 12.3295 14.8229 12.9125 14.6025C13.4147 14.4194 13.8686 14.1244 14.24 13.74C14.6242 13.3669 14.9213 12.9136 15.11 12.4125C15.3239 11.8279 15.4404 11.2123 15.455 10.59C15.455 9.795 15.5 9.54 15.5 7.5C15.5 5.46 15.5 5.205 15.455 4.41V4.41ZM14.105 10.5C14.0995 10.9761 14.0133 11.4478 13.85 11.895C13.7302 12.2214 13.5379 12.5163 13.2875 12.7575C13.0442 13.0054 12.7499 13.1973 12.425 13.32C11.9778 13.4833 11.5061 13.5695 11.03 13.575C10.28 13.6125 10.0025 13.62 8.03 13.62C6.0575 13.62 5.78 13.62 5.03 13.575C4.53567 13.5843 4.04345 13.5081 3.575 13.35C3.26434 13.2211 2.98352 13.0296 2.75 12.7875C2.50107 12.5466 2.31113 12.2514 2.195 11.925C2.01189 11.4714 1.91033 10.989 1.895 10.5C1.895 9.75 1.85 9.4725 1.85 7.5C1.85 5.5275 1.85 5.25 1.895 4.5C1.89836 4.01329 1.98721 3.53096 2.1575 3.075C2.28954 2.75843 2.4922 2.47624 2.75 2.25C2.97786 1.99213 3.25947 1.78732 3.575 1.65C4.03216 1.48503 4.514 1.39881 5 1.395C5.75 1.395 6.0275 1.35 8 1.35C9.9725 1.35 10.25 1.35 11 1.395C11.4761 1.40046 11.9478 1.48668 12.395 1.65C12.7358 1.77649 13.0417 1.98214 13.2875 2.25C13.5333 2.48038 13.7253 2.76205 13.85 3.075C14.0167 3.5317 14.103 4.01383 14.105 4.5C14.1425 5.25 14.15 5.5275 14.15 7.5C14.15 9.4725 14.1425 9.75 14.105 10.5ZM8 3.6525C7.23936 3.65398 6.49622 3.88089 5.86449 4.30456C5.23276 4.72823 4.74078 5.32965 4.45073 6.03282C4.16067 6.73598 4.08554 7.50935 4.23485 8.2552C4.38415 9.00104 4.75118 9.6859 5.28956 10.2232C5.82794 10.7606 6.51351 11.1263 7.25964 11.2741C8.00578 11.422 8.779 11.3453 9.4816 11.0539C10.1842 10.7625 10.7847 10.2693 11.2071 9.63678C11.6295 9.00422 11.855 8.26064 11.855 7.5C11.856 6.99383 11.7569 6.49245 11.5634 6.02472C11.37 5.55698 11.0859 5.13211 10.7277 4.77454C10.3694 4.41697 9.94396 4.13376 9.47585 3.9412C9.00773 3.74864 8.50617 3.65052 8 3.6525V3.6525ZM8 9.9975C7.50604 9.9975 7.02318 9.85102 6.61246 9.5766C6.20175 9.30217 5.88164 8.91211 5.69261 8.45575C5.50358 7.99939 5.45412 7.49723 5.55049 7.01276C5.64686 6.52829 5.88472 6.08328 6.234 5.734C6.58328 5.38472 7.02829 5.14686 7.51276 5.05049C7.99723 4.95412 8.49939 5.00358 8.95575 5.19261C9.41211 5.38164 9.80217 5.70175 10.0766 6.11246C10.351 6.52318 10.4975 7.00604 10.4975 7.5C10.4975 7.82798 10.4329 8.15274 10.3074 8.45575C10.1819 8.75876 9.99791 9.03408 9.766 9.266C9.53408 9.49791 9.25876 9.68188 8.95575 9.80739C8.65274 9.9329 8.32798 9.9975 8 9.9975V9.9975Z" fill="#B4414C"/>
</svg>
