<?xml version="1.0" encoding="UTF-8"?>
<svg id="Layer_2" data-name="Layer 2" xmlns="http://www.w3.org/2000/svg" viewBox="0 0 702.19 611.9">
  <defs>
    <style>
      .cls-1 {
        fill: #f4f5ef;
      }
    </style>
  </defs>
  <g id="Layer_1-2" data-name="Layer 1">
    <g>
      <path class="cls-1" d="m656.86,298.89c-30.25-32.86-69.85-51.85-118.78-57.02,21.87-12.09,41.16-26.47,57.89-43.21,16.69-16.69,29.64-33.99,38.85-51.81,9.22-17.86,13.96-35.55,14.26-53.15.25-17.56-3.91-33.25-12.53-47.07-8.65-13.83-23.64-25.03-44.93-33.69-21.3-8.65-48.07-12.95-80.32-12.95h-251.27c-2.74,2.74-4.28,4.28-7.02,7.02v311.65c0,1.3-.57,2.52-1.56,3.34-96.8,80.19-102.57,155.81-169.59,206.1-2.61,1.95-6.39.56-7.17-2.61-.35-1.44.04-2.96,1-4.09,28.12-32.21,44.07-66.11,48.94-77.45-.87-2.22-1.35-3.48-2.22-5.7-55.63-23.55-101.78,3.91-114.3,12.56-.48,2.31-.75,3.61-1.22,5.87l28.42,45.42c-48.85,30.51-32.77,104.87-32.77,104.87,72.71,20.51,114.87-29.94,114.87-29.94l45.2,25.55c2.26-.58,3.63-.92,5.89-1.5,52.6-85.6-8.67-135.58-8.67-135.58,51.33-77.15,93.19-112.09,93.19-112.09v246.86c1.69,1.69,2.64,2.64,4.35,4.35h255.64c52.41,0,97.05-17.39,133.91-52.25,36.86-34.86,55.28-78.45,55.28-130.86,0-48.94-15.12-89.83-45.33-122.65ZM360.14,84.66c1.12-17.3,7.34-28.82,18.56-34.55,11.21-5.78,25.77-8.66,43.59-8.66,58.76,0,96.05,13.39,111.91,40.16,15.78,26.77,11.78,57.77-12.12,92.88-23.9,35.12-59.45,64.5-106.65,88.1-24.39,12.56-40.73,21-48.98,25.25-2.78-1.69-3.56-2.17-6.3-3.87V84.66Zm191.32,431.89c-30.25,28.81-72.41,43.2-126.56,43.2-12.08,0-22.16-.87-30.21-2.61-8.08-1.74-15.73-5.91-22.9-12.52-7.22-6.6-11.09-15.99-11.65-28.07v-45.77c0-35.73-3.61-61.19-10.82-76.45-5.74-12.17-16.48-18.73-32.25-19.78-1.09-3.87-1.09-3.91-2.21-7.82,26.98-19.39,65.71-41.47,116.08-66.15,33.43-14.95,62.5-17.99,87.27-9.04,24.73,8.91,44.03,24.47,57.85,46.64,13.83,22.16,20.78,46.51,20.78,72.97,0,41.46-15.17,76.62-45.37,105.4Z"/>
      <g>
        <circle class="cls-1" cx="28.15" cy="30.5" r="28.15"/>
        <g>
          <circle class="cls-1" cx="108.27" cy="30.5" r="28.15"/>
          <circle class="cls-1" cx="189.13" cy="30.5" r="28.15"/>
        </g>
        <g>
          <circle class="cls-1" cx="108.73" cy="161.37" r="28.15"/>
          <g>
            <circle class="cls-1" cx="66.76" cy="99.95" r="28.15"/>
            <circle class="cls-1" cx="147.62" cy="99.95" r="28.15"/>
          </g>
        </g>
      </g>
    </g>
  </g>
</svg>